Coordinates
version=1
nRows=60
nColumns=12
inDegrees=yes

Units are S.I. units (second, meters, Newtons, ...)
Angles are in degrees

endheader
time	SC_y	SC_z	SC_x	AC_y	AC_z	AC_x	GH_y	GH_z	GH_yy	EL_x	PS_y
       0.0              -34.38          29.65          58.64           33.7         -9.632          16.79         -53.66           71.6           4.52          44.54          20.96
   0.03091              -34.38          29.65          58.64           33.7         -9.629          16.79         -53.67          71.59          4.545          44.54          20.97
   0.06183              -34.38          29.65          58.63           33.7         -9.627          16.79         -53.68          71.57          4.572          44.54          20.97
   0.09274              -34.38          29.65          58.63           33.7         -9.624          16.78         -53.69          71.56            4.6          44.55          20.98
    0.1237              -34.37          29.64          58.62           33.7          -9.62          16.78          -53.7          71.54           4.63          44.55          20.98
    0.1546              -34.37          29.64          58.61           33.7         -9.617          16.78         -53.71          71.53          4.662          44.55          20.98
    0.1855              -34.37          29.64          58.61          33.71         -9.613          16.78         -53.72          71.51          4.696          44.56          20.99
    0.2164              -34.37          29.64           58.6          33.71          -9.61          16.78         -53.73          71.49          4.732          44.56          20.99
    0.2473              -34.36          29.64          58.59          33.71         -9.605          16.78         -53.75          71.47          4.771          44.57           21.0
    0.2782              -34.36          29.64          58.58          33.71         -9.601          16.77         -53.76          71.45          4.813          44.57          21.01
    0.3091              -34.36          29.63          58.57          33.72         -9.596          16.77         -53.77          71.43          4.858          44.57          21.01
    0.3401              -34.36          29.63          58.56          33.72         -9.591          16.77         -53.79          71.41          4.907          44.58          21.02
     0.371              -34.35          29.63          58.55          33.72         -9.586          16.77         -53.81          71.38          4.959          44.59          21.03
    0.4019              -34.35          29.63          58.53          33.72          -9.58          16.76         -53.83          71.35          5.016          44.59          21.04
    0.4328              -34.34          29.62          58.52          33.73         -9.573          16.76         -53.85          71.32          5.077           44.6          21.05
    0.4637              -34.34          29.62          58.51          33.73         -9.566          16.76         -53.87          71.29          5.143          44.61          21.06
    0.4946              -34.33          29.62          58.49          33.74         -9.558          16.76          -53.9          71.26          5.215          44.62          21.07
    0.5256              -34.33          29.62          58.47          33.74          -9.55          16.75         -53.92          71.22          5.293          44.62          21.08
    0.5565              -34.32          29.61          58.45          33.75         -9.541          16.75         -53.95          71.18          5.379          44.63          21.09
    0.5874              -34.32          29.61          58.43          33.75         -9.531          16.74         -53.98          71.13          5.473          44.64          21.11
    0.6183              -34.31           29.6          58.41          33.76          -9.52          16.74         -54.02          71.08          5.576          44.66          21.12
    0.6492               -34.3           29.6          58.38          33.76         -9.508          16.73         -54.06          71.02          5.689          44.67          21.14
    0.6801              -34.29          29.59          58.36          33.77         -9.495          16.73          -54.1          70.96          5.814          44.68          21.16
     0.711              -34.29          29.59          58.33          33.78          -9.48          16.72         -54.15          70.89          5.953           44.7          21.18
     0.742              -34.27          29.58          58.29          33.79         -9.464          16.71          -54.2          70.82          6.107          44.72           21.2
    0.7729              -34.26          29.57          58.25           33.8         -9.446           16.7         -54.26          70.73          6.279          44.73          21.23
    0.8038              -34.25          29.56          58.21          33.81         -9.425           16.7         -54.32          70.64          6.472          44.76          21.26
    0.8347              -34.24          29.56          58.16          33.82         -9.402          16.69          -54.4          70.53          6.689          44.78          21.29
    0.8656              -34.22          29.55          58.11          33.84         -9.376          16.67         -54.48          70.41          6.934          44.81          21.33
    0.8965               -34.2          29.53          58.05          33.85         -9.347          16.66         -54.57          70.28          7.212          44.84          21.37
    0.9274              -34.18          29.52          57.98          33.87         -9.313          16.65         -54.68          70.12          7.529          44.88          21.41
    0.9584              -34.16           29.5          57.89           33.9         -9.274          16.63          -54.8          69.94          7.894          44.92          21.47
    0.9893              -34.13          29.49           57.8          33.92          -9.23          16.61         -54.95          69.73          8.314          44.96          21.53
      1.02              -34.09          29.46          57.69          33.95         -9.178          16.58         -55.11          69.49          8.803          45.02          21.61
     1.051              -34.06          29.44          57.56          33.98         -9.117          16.56         -55.31          69.21          9.375          45.08          21.69
     1.082              -34.01          29.41          57.42          34.02         -9.046          16.53         -55.53          68.88          10.05          45.16          21.79
     1.113              -33.96          29.38          57.24          34.07         -8.961          16.49          -55.8          68.49          10.85          45.25          21.91
     1.144              -33.89          29.34          57.02          34.13         -8.859          16.44         -56.13          68.02          11.81          45.36          22.06
     1.175              -33.82          29.29          56.77           34.2         -8.736          16.39         -56.52          67.45          12.97          45.49          22.23
     1.206              -33.72          29.23          56.45          34.28         -8.586          16.32          -57.0          66.75          14.39          45.65          22.44
     1.237               -33.6          29.15          56.06          34.38           -8.4          16.24          -57.6          65.89          16.14          45.85          22.71
     1.268              -33.46          29.06          55.57          34.51         -8.169          16.13         -58.34          64.82          18.33          46.09          23.04
     1.298              -33.28          28.94          54.96          34.68         -7.877           16.0         -59.27          63.47          21.08           46.4          23.45
     1.329              -33.04          28.79          54.18          34.88         -7.506          15.84         -60.46          61.75          24.58           46.8          23.97
      1.36              -32.74           28.6          53.19          35.15         -7.032          15.62         -61.97          59.55          29.06           47.3          24.64
     1.391              -32.36          28.35          51.91          35.49         -6.422          15.35         -63.92          56.73           34.8          47.95          25.51
     1.422              -31.87          28.04          50.28          35.92         -5.645           15.0         -66.41          53.12          42.14          48.77          26.61
     1.453              -31.25          27.64          48.23          36.47         -4.666          14.57         -69.53          48.59          51.37          49.81          27.99
     1.484               -30.5          27.16          45.73          37.14         -3.474          14.03         -73.34          43.07          62.62          51.08          29.68
     1.515              -29.63           26.6          42.83          37.91         -2.093          13.41         -77.76          36.67          75.65          52.55          31.64
     1.546              -28.69           26.0          39.69          38.75        -0.5967          12.74         -82.54          29.73          89.77          54.14          33.75
     1.577              -27.75          25.39          36.55          39.58         0.8993          12.07         -87.32           22.8          103.9          55.73          35.87
     1.608              -26.88          24.83          33.66          40.36          2.281          11.46         -91.74           16.4          116.9           57.2          37.83
     1.638              -26.12          24.35          31.16          41.02          3.473          10.92         -95.55          10.88          128.2          58.46          39.52
     1.669              -25.51          23.95           29.1          41.57          4.451          10.49         -98.68          6.346          137.4           59.5           40.9
       1.7              -25.02          23.64          27.47           42.0          5.229          10.14         -101.2          2.742          144.7          60.33           42.0
     1.731              -24.63          23.39          26.19          42.34          5.838          9.864         -103.1       -0.07987          150.5          60.98          42.86
     1.762              -24.34           23.2           25.2          42.61          6.313          9.652         -104.6         -2.279          155.0          61.48          43.54
     1.793               -24.1          23.05          24.42          42.82          6.683          9.486         -105.8         -3.997          158.5          61.87          44.06
     1.824              -23.92          22.93          23.81          42.98          6.975          9.355         -106.7         -5.348          161.2          62.18          44.47
